<mxfile host="Electron" agent="Mozilla/5.0 (Windows NT 10.0; Win64; x64) AppleWebKit/537.36 (KHTML, like Gecko) draw.io/27.0.5 Chrome/134.0.6998.205 Electron/35.3.0 Safari/537.36" version="27.0.5">
  <diagram name="Page-1" id="8o0z7y7OuUAvwIaAYuOd">
    <mxGraphModel dx="1623" dy="2487" grid="1" gridSize="10" guides="1" tooltips="1" connect="1" arrows="1" fold="1" page="1" pageScale="1" pageWidth="850" pageHeight="1100" background="light-dark(#ffffff, #121212)" math="0" shadow="1">
      <root>
        <mxCell id="0" />
        <mxCell id="1" parent="0" />
        <mxCell id="PCS_lLPH-Cxck8cKdYNM-3" value="Service" style="rounded=1;arcSize=10;whiteSpace=wrap;html=1;align=center;" parent="1" vertex="1">
          <mxGeometry x="790" y="40" width="100" height="40" as="geometry" />
        </mxCell>
        <mxCell id="WppSuP8uSQgcxT5ixbPf-3" value="Request" style="rounded=1;arcSize=10;whiteSpace=wrap;html=1;align=center;" parent="1" vertex="1">
          <mxGeometry x="408" y="40" width="100" height="40" as="geometry" />
        </mxCell>
        <mxCell id="WppSuP8uSQgcxT5ixbPf-4" value="LicenseClass" style="rounded=1;arcSize=10;whiteSpace=wrap;html=1;align=center;" parent="1" vertex="1">
          <mxGeometry x="408" y="440" width="100" height="40" as="geometry" />
        </mxCell>
        <mxCell id="WppSuP8uSQgcxT5ixbPf-5" value="Tests" style="rounded=1;arcSize=10;whiteSpace=wrap;html=1;align=center;" parent="1" vertex="1">
          <mxGeometry x="679" y="-210" width="100" height="40" as="geometry" />
        </mxCell>
        <mxCell id="WppSuP8uSQgcxT5ixbPf-7" value="License" style="rounded=1;arcSize=10;whiteSpace=wrap;html=1;align=center;" parent="1" vertex="1">
          <mxGeometry x="20" y="440" width="100" height="40" as="geometry" />
        </mxCell>
        <mxCell id="zVeaoRBgDZd97qpMVTXL-9" style="edgeStyle=orthogonalEdgeStyle;rounded=0;orthogonalLoop=1;jettySize=auto;html=1;exitX=1;exitY=0.5;exitDx=0;exitDy=0;entryX=0.5;entryY=1;entryDx=0;entryDy=0;endArrow=ERoneToMany;endFill=0;startArrow=ERzeroToOne;startFill=0;" edge="1" parent="1" source="WppSuP8uSQgcxT5ixbPf-8" target="zVeaoRBgDZd97qpMVTXL-8">
          <mxGeometry relative="1" as="geometry" />
        </mxCell>
        <mxCell id="WppSuP8uSQgcxT5ixbPf-8" value="User" style="rounded=1;arcSize=10;whiteSpace=wrap;html=1;align=center;" parent="1" vertex="1">
          <mxGeometry x="170" y="240" width="100" height="40" as="geometry" />
        </mxCell>
        <mxCell id="WppSuP8uSQgcxT5ixbPf-9" value="Person" style="rounded=1;arcSize=10;whiteSpace=wrap;html=1;align=center;" parent="1" vertex="1">
          <mxGeometry x="80" y="40" width="100" height="40" as="geometry" />
        </mxCell>
        <mxCell id="WppSuP8uSQgcxT5ixbPf-10" value="Reservation" style="rounded=1;arcSize=10;whiteSpace=wrap;html=1;align=center;" parent="1" vertex="1">
          <mxGeometry x="-300" y="440" width="100" height="40" as="geometry" />
        </mxCell>
        <mxCell id="WppSuP8uSQgcxT5ixbPf-12" style="edgeStyle=orthogonalEdgeStyle;rounded=0;orthogonalLoop=1;jettySize=auto;html=1;exitX=1;exitY=0.5;exitDx=0;exitDy=0;entryX=0.5;entryY=0;entryDx=0;entryDy=0;" parent="1" source="WppSuP8uSQgcxT5ixbPf-11" target="WppSuP8uSQgcxT5ixbPf-8" edge="1">
          <mxGeometry relative="1" as="geometry" />
        </mxCell>
        <mxCell id="WppSuP8uSQgcxT5ixbPf-16" style="edgeStyle=orthogonalEdgeStyle;rounded=0;orthogonalLoop=1;jettySize=auto;html=1;exitX=1;exitY=0.5;exitDx=0;exitDy=0;entryX=0.5;entryY=0;entryDx=0;entryDy=0;" parent="1" source="WppSuP8uSQgcxT5ixbPf-11" target="WppSuP8uSQgcxT5ixbPf-15" edge="1">
          <mxGeometry relative="1" as="geometry" />
        </mxCell>
        <mxCell id="WppSuP8uSQgcxT5ixbPf-11" value="Is a" style="triangle;whiteSpace=wrap;html=1;rotation=90;" parent="1" vertex="1">
          <mxGeometry x="100" y="130" width="60" height="80" as="geometry" />
        </mxCell>
        <mxCell id="WppSuP8uSQgcxT5ixbPf-13" style="edgeStyle=orthogonalEdgeStyle;rounded=0;orthogonalLoop=1;jettySize=auto;html=1;exitX=0;exitY=0.5;exitDx=0;exitDy=0;entryX=0.5;entryY=1;entryDx=0;entryDy=0;" parent="1" source="WppSuP8uSQgcxT5ixbPf-11" target="WppSuP8uSQgcxT5ixbPf-9" edge="1">
          <mxGeometry relative="1" as="geometry">
            <mxPoint x="130" y="120" as="targetPoint" />
          </mxGeometry>
        </mxCell>
        <mxCell id="WppSuP8uSQgcxT5ixbPf-15" value="Driver" style="rounded=1;arcSize=10;whiteSpace=wrap;html=1;align=center;" parent="1" vertex="1">
          <mxGeometry x="20" y="240" width="100" height="40" as="geometry" />
        </mxCell>
        <mxCell id="WppSuP8uSQgcxT5ixbPf-18" style="edgeStyle=orthogonalEdgeStyle;rounded=0;orthogonalLoop=1;jettySize=auto;html=1;exitX=0;exitY=0.5;exitDx=0;exitDy=0;entryX=1;entryY=0.5;entryDx=0;entryDy=0;endArrow=ERzeroToOne;endFill=0;" parent="1" source="WppSuP8uSQgcxT5ixbPf-17" target="WppSuP8uSQgcxT5ixbPf-9" edge="1">
          <mxGeometry relative="1" as="geometry" />
        </mxCell>
        <mxCell id="WppSuP8uSQgcxT5ixbPf-19" style="edgeStyle=orthogonalEdgeStyle;rounded=0;orthogonalLoop=1;jettySize=auto;html=1;exitX=1;exitY=0.5;exitDx=0;exitDy=0;entryX=0;entryY=0.5;entryDx=0;entryDy=0;endArrow=ERoneToMany;endFill=0;" parent="1" source="WppSuP8uSQgcxT5ixbPf-17" target="WppSuP8uSQgcxT5ixbPf-3" edge="1">
          <mxGeometry relative="1" as="geometry" />
        </mxCell>
        <mxCell id="WppSuP8uSQgcxT5ixbPf-17" value="Get" style="shape=rhombus;perimeter=rhombusPerimeter;whiteSpace=wrap;html=1;align=center;" parent="1" vertex="1">
          <mxGeometry x="229" y="30" width="120" height="60" as="geometry" />
        </mxCell>
        <mxCell id="WppSuP8uSQgcxT5ixbPf-22" style="edgeStyle=orthogonalEdgeStyle;rounded=0;orthogonalLoop=1;jettySize=auto;html=1;exitX=0;exitY=0.5;exitDx=0;exitDy=0;entryX=1;entryY=0.5;entryDx=0;entryDy=0;endArrow=ERoneToMany;endFill=0;" parent="1" source="WppSuP8uSQgcxT5ixbPf-20" target="WppSuP8uSQgcxT5ixbPf-3" edge="1">
          <mxGeometry relative="1" as="geometry" />
        </mxCell>
        <mxCell id="WppSuP8uSQgcxT5ixbPf-23" style="edgeStyle=orthogonalEdgeStyle;rounded=0;orthogonalLoop=1;jettySize=auto;html=1;exitX=1;exitY=0.5;exitDx=0;exitDy=0;entryX=0;entryY=0.5;entryDx=0;entryDy=0;endArrow=ERzeroToOne;endFill=0;" parent="1" source="WppSuP8uSQgcxT5ixbPf-20" target="PCS_lLPH-Cxck8cKdYNM-3" edge="1">
          <mxGeometry relative="1" as="geometry" />
        </mxCell>
        <mxCell id="WppSuP8uSQgcxT5ixbPf-20" value="Contains" style="shape=rhombus;perimeter=rhombusPerimeter;whiteSpace=wrap;html=1;align=center;" parent="1" vertex="1">
          <mxGeometry x="559" y="30" width="120" height="60" as="geometry" />
        </mxCell>
        <mxCell id="WppSuP8uSQgcxT5ixbPf-26" value="" style="edgeStyle=orthogonalEdgeStyle;rounded=0;orthogonalLoop=1;jettySize=auto;html=1;endArrow=ERmandOne;endFill=0;" parent="1" source="WppSuP8uSQgcxT5ixbPf-25" target="WppSuP8uSQgcxT5ixbPf-15" edge="1">
          <mxGeometry relative="1" as="geometry" />
        </mxCell>
        <mxCell id="WppSuP8uSQgcxT5ixbPf-27" value="" style="edgeStyle=orthogonalEdgeStyle;rounded=0;orthogonalLoop=1;jettySize=auto;html=1;endArrow=ERoneToMany;endFill=0;" parent="1" source="WppSuP8uSQgcxT5ixbPf-25" target="WppSuP8uSQgcxT5ixbPf-7" edge="1">
          <mxGeometry relative="1" as="geometry" />
        </mxCell>
        <mxCell id="WppSuP8uSQgcxT5ixbPf-25" value="Hav" style="shape=rhombus;perimeter=rhombusPerimeter;whiteSpace=wrap;html=1;align=center;" parent="1" vertex="1">
          <mxGeometry x="10" y="330" width="120" height="60" as="geometry" />
        </mxCell>
        <mxCell id="WppSuP8uSQgcxT5ixbPf-29" value="" style="edgeStyle=orthogonalEdgeStyle;rounded=0;orthogonalLoop=1;jettySize=auto;html=1;endArrow=ERzeroToOne;endFill=0;" parent="1" source="WppSuP8uSQgcxT5ixbPf-28" target="WppSuP8uSQgcxT5ixbPf-7" edge="1">
          <mxGeometry relative="1" as="geometry" />
        </mxCell>
        <mxCell id="WppSuP8uSQgcxT5ixbPf-30" value="" style="edgeStyle=orthogonalEdgeStyle;rounded=0;orthogonalLoop=1;jettySize=auto;html=1;endArrow=ERoneToMany;endFill=0;" parent="1" source="WppSuP8uSQgcxT5ixbPf-28" target="WppSuP8uSQgcxT5ixbPf-10" edge="1">
          <mxGeometry relative="1" as="geometry" />
        </mxCell>
        <mxCell id="WppSuP8uSQgcxT5ixbPf-28" value="Get" style="shape=rhombus;perimeter=rhombusPerimeter;whiteSpace=wrap;html=1;align=center;" parent="1" vertex="1">
          <mxGeometry x="-160" y="430" width="120" height="60" as="geometry" />
        </mxCell>
        <mxCell id="WppSuP8uSQgcxT5ixbPf-32" value="" style="edgeStyle=orthogonalEdgeStyle;rounded=0;orthogonalLoop=1;jettySize=auto;html=1;endArrow=ERzeroToOne;endFill=0;" parent="1" source="WppSuP8uSQgcxT5ixbPf-31" target="WppSuP8uSQgcxT5ixbPf-4" edge="1">
          <mxGeometry relative="1" as="geometry" />
        </mxCell>
        <mxCell id="WppSuP8uSQgcxT5ixbPf-33" value="" style="edgeStyle=orthogonalEdgeStyle;rounded=0;orthogonalLoop=1;jettySize=auto;html=1;endArrow=ERoneToMany;endFill=0;" parent="1" source="WppSuP8uSQgcxT5ixbPf-31" target="WppSuP8uSQgcxT5ixbPf-7" edge="1">
          <mxGeometry relative="1" as="geometry" />
        </mxCell>
        <mxCell id="WppSuP8uSQgcxT5ixbPf-31" value="Include" style="shape=rhombus;perimeter=rhombusPerimeter;whiteSpace=wrap;html=1;align=center;" parent="1" vertex="1">
          <mxGeometry x="190" y="430" width="120" height="60" as="geometry" />
        </mxCell>
        <mxCell id="WppSuP8uSQgcxT5ixbPf-35" style="edgeStyle=orthogonalEdgeStyle;rounded=0;orthogonalLoop=1;jettySize=auto;html=1;entryX=1;entryY=0.5;entryDx=0;entryDy=0;endArrow=ERzeroToOne;endFill=0;exitX=0;exitY=0.5;exitDx=0;exitDy=0;startArrow=ERoneToMany;startFill=0;" parent="1" source="zVeaoRBgDZd97qpMVTXL-1" target="WppSuP8uSQgcxT5ixbPf-9" edge="1">
          <mxGeometry relative="1" as="geometry">
            <Array as="points">
              <mxPoint x="210" y="-190" />
              <mxPoint x="210" y="60" />
            </Array>
            <mxPoint x="390" y="340" as="sourcePoint" />
          </mxGeometry>
        </mxCell>
        <mxCell id="WppSuP8uSQgcxT5ixbPf-36" style="edgeStyle=orthogonalEdgeStyle;rounded=0;orthogonalLoop=1;jettySize=auto;html=1;exitX=1;exitY=0.5;exitDx=0;exitDy=0;entryX=0;entryY=0.5;entryDx=0;entryDy=0;endArrow=ERmandOne;endFill=0;startArrow=ERoneToMany;startFill=0;" parent="1" source="zVeaoRBgDZd97qpMVTXL-1" target="WppSuP8uSQgcxT5ixbPf-5" edge="1">
          <mxGeometry relative="1" as="geometry">
            <mxPoint x="540" y="240" as="sourcePoint" />
          </mxGeometry>
        </mxCell>
        <mxCell id="zVeaoRBgDZd97qpMVTXL-1" value="Enrolle" style="shape=associativeEntity;whiteSpace=wrap;html=1;align=center;" vertex="1" parent="1">
          <mxGeometry x="358" y="-220" width="140" height="60" as="geometry" />
        </mxCell>
        <mxCell id="zVeaoRBgDZd97qpMVTXL-5" style="edgeStyle=orthogonalEdgeStyle;rounded=0;orthogonalLoop=1;jettySize=auto;html=1;exitX=0.5;exitY=1;exitDx=0;exitDy=0;entryX=0.5;entryY=0;entryDx=0;entryDy=0;endArrow=ERzeroToOne;endFill=0;" edge="1" parent="1" source="zVeaoRBgDZd97qpMVTXL-4" target="WppSuP8uSQgcxT5ixbPf-4">
          <mxGeometry relative="1" as="geometry" />
        </mxCell>
        <mxCell id="zVeaoRBgDZd97qpMVTXL-4" value="include" style="shape=rhombus;perimeter=rhombusPerimeter;whiteSpace=wrap;html=1;align=center;" vertex="1" parent="1">
          <mxGeometry x="398" y="220" width="120" height="60" as="geometry" />
        </mxCell>
        <mxCell id="zVeaoRBgDZd97qpMVTXL-6" style="edgeStyle=orthogonalEdgeStyle;rounded=0;orthogonalLoop=1;jettySize=auto;html=1;exitX=0.5;exitY=0;exitDx=0;exitDy=0;entryX=0.5;entryY=1;entryDx=0;entryDy=0;endArrow=ERzeroToMany;endFill=0;startArrow=none;startFill=0;" edge="1" parent="1" source="zVeaoRBgDZd97qpMVTXL-4" target="WppSuP8uSQgcxT5ixbPf-3">
          <mxGeometry relative="1" as="geometry">
            <mxPoint x="457" y="110" as="targetPoint" />
          </mxGeometry>
        </mxCell>
        <mxCell id="zVeaoRBgDZd97qpMVTXL-8" value="LoginRegister" style="rounded=1;arcSize=10;whiteSpace=wrap;html=1;align=center;" vertex="1" parent="1">
          <mxGeometry x="290" y="150" width="100" height="40" as="geometry" />
        </mxCell>
        <mxCell id="zVeaoRBgDZd97qpMVTXL-22" style="edgeStyle=orthogonalEdgeStyle;rounded=0;orthogonalLoop=1;jettySize=auto;html=1;exitX=0.5;exitY=1;exitDx=0;exitDy=0;entryX=0.5;entryY=0;entryDx=0;entryDy=0;curved=1;endArrow=none;startFill=0;" edge="1" parent="1" source="zVeaoRBgDZd97qpMVTXL-11" target="WppSuP8uSQgcxT5ixbPf-9">
          <mxGeometry relative="1" as="geometry" />
        </mxCell>
        <mxCell id="zVeaoRBgDZd97qpMVTXL-11" value="SNN" style="ellipse;whiteSpace=wrap;html=1;align=center;fontStyle=4;" vertex="1" parent="1">
          <mxGeometry x="100" y="-180" width="100" height="40" as="geometry" />
        </mxCell>
        <mxCell id="zVeaoRBgDZd97qpMVTXL-25" style="edgeStyle=orthogonalEdgeStyle;rounded=0;orthogonalLoop=1;jettySize=auto;html=1;exitX=1;exitY=0.5;exitDx=0;exitDy=0;entryX=0.5;entryY=0;entryDx=0;entryDy=0;curved=1;endArrow=none;startFill=0;" edge="1" parent="1" source="zVeaoRBgDZd97qpMVTXL-12" target="WppSuP8uSQgcxT5ixbPf-9">
          <mxGeometry relative="1" as="geometry">
            <Array as="points">
              <mxPoint x="130" y="-130" />
            </Array>
          </mxGeometry>
        </mxCell>
        <mxCell id="zVeaoRBgDZd97qpMVTXL-12" value="Name" style="ellipse;whiteSpace=wrap;html=1;align=center;" vertex="1" parent="1">
          <mxGeometry x="20" y="-150" width="100" height="40" as="geometry" />
        </mxCell>
        <mxCell id="zVeaoRBgDZd97qpMVTXL-26" style="edgeStyle=orthogonalEdgeStyle;rounded=0;orthogonalLoop=1;jettySize=auto;html=1;exitX=1;exitY=0.5;exitDx=0;exitDy=0;entryX=0.5;entryY=0;entryDx=0;entryDy=0;curved=1;endArrow=none;startFill=0;" edge="1" parent="1" source="zVeaoRBgDZd97qpMVTXL-13" target="WppSuP8uSQgcxT5ixbPf-9">
          <mxGeometry relative="1" as="geometry" />
        </mxCell>
        <mxCell id="zVeaoRBgDZd97qpMVTXL-13" value="Birth Date" style="ellipse;whiteSpace=wrap;html=1;align=center;" vertex="1" parent="1">
          <mxGeometry x="-40" y="-110" width="100" height="40" as="geometry" />
        </mxCell>
        <mxCell id="zVeaoRBgDZd97qpMVTXL-27" style="edgeStyle=orthogonalEdgeStyle;rounded=0;orthogonalLoop=1;jettySize=auto;html=1;exitX=1;exitY=0.5;exitDx=0;exitDy=0;entryX=0.5;entryY=0;entryDx=0;entryDy=0;curved=1;endArrow=none;startFill=0;" edge="1" parent="1" source="zVeaoRBgDZd97qpMVTXL-16" target="WppSuP8uSQgcxT5ixbPf-9">
          <mxGeometry relative="1" as="geometry" />
        </mxCell>
        <mxCell id="zVeaoRBgDZd97qpMVTXL-16" value="Adress" style="ellipse;whiteSpace=wrap;html=1;align=center;" vertex="1" parent="1">
          <mxGeometry x="-110" y="-70" width="100" height="40" as="geometry" />
        </mxCell>
        <mxCell id="zVeaoRBgDZd97qpMVTXL-28" style="edgeStyle=orthogonalEdgeStyle;rounded=0;orthogonalLoop=1;jettySize=auto;html=1;exitX=1;exitY=0.5;exitDx=0;exitDy=0;entryX=0.5;entryY=0;entryDx=0;entryDy=0;curved=1;endArrow=none;startFill=0;" edge="1" parent="1" source="zVeaoRBgDZd97qpMVTXL-17" target="WppSuP8uSQgcxT5ixbPf-9">
          <mxGeometry relative="1" as="geometry" />
        </mxCell>
        <mxCell id="zVeaoRBgDZd97qpMVTXL-17" value="Phone" style="ellipse;whiteSpace=wrap;html=1;align=center;" vertex="1" parent="1">
          <mxGeometry x="-160" y="-20" width="100" height="40" as="geometry" />
        </mxCell>
        <mxCell id="zVeaoRBgDZd97qpMVTXL-29" style="edgeStyle=orthogonalEdgeStyle;rounded=0;orthogonalLoop=1;jettySize=auto;html=1;exitX=1;exitY=0.5;exitDx=0;exitDy=0;entryX=0;entryY=0.5;entryDx=0;entryDy=0;curved=1;endArrow=none;startFill=0;" edge="1" parent="1" source="zVeaoRBgDZd97qpMVTXL-18" target="WppSuP8uSQgcxT5ixbPf-9">
          <mxGeometry relative="1" as="geometry" />
        </mxCell>
        <mxCell id="zVeaoRBgDZd97qpMVTXL-18" value="Email" style="ellipse;whiteSpace=wrap;html=1;align=center;" vertex="1" parent="1">
          <mxGeometry x="-160" y="40" width="100" height="40" as="geometry" />
        </mxCell>
        <mxCell id="zVeaoRBgDZd97qpMVTXL-31" style="edgeStyle=orthogonalEdgeStyle;rounded=0;orthogonalLoop=1;jettySize=auto;html=1;exitX=1;exitY=0;exitDx=0;exitDy=0;entryX=0;entryY=0.5;entryDx=0;entryDy=0;curved=1;endArrow=none;startFill=0;" edge="1" parent="1" source="zVeaoRBgDZd97qpMVTXL-19" target="WppSuP8uSQgcxT5ixbPf-9">
          <mxGeometry relative="1" as="geometry" />
        </mxCell>
        <mxCell id="zVeaoRBgDZd97qpMVTXL-19" value="Nationality" style="ellipse;whiteSpace=wrap;html=1;align=center;" vertex="1" parent="1">
          <mxGeometry x="-130" y="100" width="100" height="40" as="geometry" />
        </mxCell>
        <mxCell id="zVeaoRBgDZd97qpMVTXL-32" style="edgeStyle=orthogonalEdgeStyle;rounded=0;orthogonalLoop=1;jettySize=auto;html=1;exitX=0.5;exitY=0;exitDx=0;exitDy=0;entryX=0;entryY=0.5;entryDx=0;entryDy=0;curved=1;endArrow=none;startFill=0;" edge="1" parent="1" source="zVeaoRBgDZd97qpMVTXL-20" target="WppSuP8uSQgcxT5ixbPf-9">
          <mxGeometry relative="1" as="geometry" />
        </mxCell>
        <mxCell id="zVeaoRBgDZd97qpMVTXL-20" value="Image Path" style="ellipse;whiteSpace=wrap;html=1;align=center;" vertex="1" parent="1">
          <mxGeometry x="-30" y="130" width="100" height="40" as="geometry" />
        </mxCell>
        <mxCell id="zVeaoRBgDZd97qpMVTXL-35" style="edgeStyle=orthogonalEdgeStyle;rounded=0;orthogonalLoop=1;jettySize=auto;html=1;exitX=0.5;exitY=0;exitDx=0;exitDy=0;entryX=0.5;entryY=1;entryDx=0;entryDy=0;endArrow=none;startFill=0;curved=1;" edge="1" parent="1" source="zVeaoRBgDZd97qpMVTXL-33" target="WppSuP8uSQgcxT5ixbPf-8">
          <mxGeometry relative="1" as="geometry" />
        </mxCell>
        <mxCell id="zVeaoRBgDZd97qpMVTXL-33" value="UserName" style="ellipse;whiteSpace=wrap;html=1;align=center;" vertex="1" parent="1">
          <mxGeometry x="220" y="330" width="100" height="40" as="geometry" />
        </mxCell>
        <mxCell id="zVeaoRBgDZd97qpMVTXL-36" value="" style="edgeStyle=orthogonalEdgeStyle;rounded=0;orthogonalLoop=1;jettySize=auto;html=1;endArrow=none;startFill=0;curved=1;" edge="1" parent="1" source="zVeaoRBgDZd97qpMVTXL-34" target="WppSuP8uSQgcxT5ixbPf-8">
          <mxGeometry relative="1" as="geometry" />
        </mxCell>
        <mxCell id="zVeaoRBgDZd97qpMVTXL-34" value="Password" style="ellipse;whiteSpace=wrap;html=1;align=center;" vertex="1" parent="1">
          <mxGeometry x="120" y="310" width="100" height="40" as="geometry" />
        </mxCell>
        <mxCell id="zVeaoRBgDZd97qpMVTXL-38" style="edgeStyle=orthogonalEdgeStyle;rounded=0;orthogonalLoop=1;jettySize=auto;html=1;exitX=1;exitY=0.5;exitDx=0;exitDy=0;entryX=0.5;entryY=0;entryDx=0;entryDy=0;endArrow=none;startFill=0;curved=1;" edge="1" parent="1" source="zVeaoRBgDZd97qpMVTXL-37" target="zVeaoRBgDZd97qpMVTXL-8">
          <mxGeometry relative="1" as="geometry" />
        </mxCell>
        <mxCell id="zVeaoRBgDZd97qpMVTXL-37" value="DateTime" style="ellipse;whiteSpace=wrap;html=1;align=center;" vertex="1" parent="1">
          <mxGeometry x="180" y="120" width="100" height="40" as="geometry" />
        </mxCell>
        <mxCell id="zVeaoRBgDZd97qpMVTXL-40" style="edgeStyle=orthogonalEdgeStyle;rounded=0;orthogonalLoop=1;jettySize=auto;html=1;exitX=0.5;exitY=1;exitDx=0;exitDy=0;curved=1;endArrow=none;startFill=0;" edge="1" parent="1" source="zVeaoRBgDZd97qpMVTXL-39" target="zVeaoRBgDZd97qpMVTXL-8">
          <mxGeometry relative="1" as="geometry" />
        </mxCell>
        <mxCell id="zVeaoRBgDZd97qpMVTXL-39" value="LoginRegisterID" style="ellipse;whiteSpace=wrap;html=1;align=center;fontStyle=4;" vertex="1" parent="1">
          <mxGeometry x="298" y="80" width="100" height="40" as="geometry" />
        </mxCell>
        <mxCell id="zVeaoRBgDZd97qpMVTXL-42" style="edgeStyle=orthogonalEdgeStyle;rounded=0;orthogonalLoop=1;jettySize=auto;html=1;exitX=0;exitY=0.5;exitDx=0;exitDy=0;entryX=0.5;entryY=1;entryDx=0;entryDy=0;curved=1;endArrow=none;startFill=0;" edge="1" parent="1" source="zVeaoRBgDZd97qpMVTXL-41" target="WppSuP8uSQgcxT5ixbPf-8">
          <mxGeometry relative="1" as="geometry" />
        </mxCell>
        <mxCell id="zVeaoRBgDZd97qpMVTXL-41" value="UserID" style="ellipse;whiteSpace=wrap;html=1;align=center;fontStyle=4;" vertex="1" parent="1">
          <mxGeometry x="310" y="290" width="100" height="40" as="geometry" />
        </mxCell>
        <mxCell id="zVeaoRBgDZd97qpMVTXL-50" style="edgeStyle=orthogonalEdgeStyle;rounded=0;orthogonalLoop=1;jettySize=auto;html=1;exitX=0.5;exitY=0;exitDx=0;exitDy=0;entryX=0.5;entryY=1;entryDx=0;entryDy=0;endArrow=none;startFill=0;curved=1;" edge="1" parent="1" source="zVeaoRBgDZd97qpMVTXL-44" target="WppSuP8uSQgcxT5ixbPf-4">
          <mxGeometry relative="1" as="geometry" />
        </mxCell>
        <mxCell id="zVeaoRBgDZd97qpMVTXL-44" value="LicenseClassID" style="ellipse;whiteSpace=wrap;html=1;align=center;fontStyle=4;" vertex="1" parent="1">
          <mxGeometry x="239" y="540" width="100" height="40" as="geometry" />
        </mxCell>
        <mxCell id="zVeaoRBgDZd97qpMVTXL-51" style="edgeStyle=orthogonalEdgeStyle;rounded=0;orthogonalLoop=1;jettySize=auto;html=1;exitX=0.5;exitY=0;exitDx=0;exitDy=0;entryX=0.5;entryY=1;entryDx=0;entryDy=0;endArrow=none;startFill=0;curved=1;" edge="1" parent="1" source="zVeaoRBgDZd97qpMVTXL-45" target="WppSuP8uSQgcxT5ixbPf-4">
          <mxGeometry relative="1" as="geometry">
            <mxPoint x="460" y="530" as="targetPoint" />
          </mxGeometry>
        </mxCell>
        <mxCell id="zVeaoRBgDZd97qpMVTXL-45" value="ClassName" style="ellipse;whiteSpace=wrap;html=1;align=center;" vertex="1" parent="1">
          <mxGeometry x="298" y="590" width="100" height="40" as="geometry" />
        </mxCell>
        <mxCell id="zVeaoRBgDZd97qpMVTXL-55" style="edgeStyle=orthogonalEdgeStyle;rounded=0;orthogonalLoop=1;jettySize=auto;html=1;exitX=0;exitY=0.5;exitDx=0;exitDy=0;entryX=1;entryY=0.5;entryDx=0;entryDy=0;endArrow=none;startFill=0;curved=1;" edge="1" parent="1" source="zVeaoRBgDZd97qpMVTXL-46" target="WppSuP8uSQgcxT5ixbPf-4">
          <mxGeometry relative="1" as="geometry" />
        </mxCell>
        <mxCell id="zVeaoRBgDZd97qpMVTXL-46" value="ClassFees" style="ellipse;whiteSpace=wrap;html=1;align=center;" vertex="1" parent="1">
          <mxGeometry x="550" y="450" width="100" height="40" as="geometry" />
        </mxCell>
        <mxCell id="zVeaoRBgDZd97qpMVTXL-52" style="edgeStyle=orthogonalEdgeStyle;rounded=0;orthogonalLoop=1;jettySize=auto;html=1;exitX=0.5;exitY=0;exitDx=0;exitDy=0;entryX=0.5;entryY=1;entryDx=0;entryDy=0;endArrow=none;startFill=0;curved=1;" edge="1" parent="1" source="zVeaoRBgDZd97qpMVTXL-47" target="WppSuP8uSQgcxT5ixbPf-4">
          <mxGeometry relative="1" as="geometry" />
        </mxCell>
        <mxCell id="zVeaoRBgDZd97qpMVTXL-47" value="ClassDescription" style="ellipse;whiteSpace=wrap;html=1;align=center;" vertex="1" parent="1">
          <mxGeometry x="398" y="600" width="100" height="40" as="geometry" />
        </mxCell>
        <mxCell id="zVeaoRBgDZd97qpMVTXL-54" style="edgeStyle=orthogonalEdgeStyle;rounded=0;orthogonalLoop=1;jettySize=auto;html=1;exitX=0;exitY=0.5;exitDx=0;exitDy=0;entryX=1;entryY=0.5;entryDx=0;entryDy=0;endArrow=none;startFill=0;curved=1;" edge="1" parent="1" source="zVeaoRBgDZd97qpMVTXL-49" target="WppSuP8uSQgcxT5ixbPf-4">
          <mxGeometry relative="1" as="geometry" />
        </mxCell>
        <mxCell id="zVeaoRBgDZd97qpMVTXL-49" value="ValidityLength" style="ellipse;whiteSpace=wrap;html=1;align=center;" vertex="1" parent="1">
          <mxGeometry x="531" y="510" width="100" height="40" as="geometry" />
        </mxCell>
        <mxCell id="zVeaoRBgDZd97qpMVTXL-58" style="edgeStyle=orthogonalEdgeStyle;rounded=0;orthogonalLoop=1;jettySize=auto;html=1;exitX=0.5;exitY=0;exitDx=0;exitDy=0;entryX=0.5;entryY=1;entryDx=0;entryDy=0;endArrow=none;startFill=0;curved=1;" edge="1" parent="1" source="zVeaoRBgDZd97qpMVTXL-57" target="WppSuP8uSQgcxT5ixbPf-4">
          <mxGeometry relative="1" as="geometry">
            <Array as="points">
              <mxPoint x="490" y="560" />
              <mxPoint x="490" y="520" />
              <mxPoint x="458" y="520" />
            </Array>
          </mxGeometry>
        </mxCell>
        <mxCell id="zVeaoRBgDZd97qpMVTXL-57" value="MinimumAllowedAge" style="ellipse;whiteSpace=wrap;html=1;align=center;" vertex="1" parent="1">
          <mxGeometry x="472" y="560" width="138" height="40" as="geometry" />
        </mxCell>
        <mxCell id="zVeaoRBgDZd97qpMVTXL-61" style="edgeStyle=orthogonalEdgeStyle;rounded=0;orthogonalLoop=1;jettySize=auto;html=1;exitX=0.5;exitY=1;exitDx=0;exitDy=0;entryX=0.5;entryY=0;entryDx=0;entryDy=0;curved=1;endArrow=none;startFill=0;" edge="1" parent="1" source="zVeaoRBgDZd97qpMVTXL-59" target="PCS_lLPH-Cxck8cKdYNM-3">
          <mxGeometry relative="1" as="geometry" />
        </mxCell>
        <mxCell id="zVeaoRBgDZd97qpMVTXL-59" value="ServiceID" style="ellipse;whiteSpace=wrap;html=1;align=center;fontStyle=4;" vertex="1" parent="1">
          <mxGeometry x="790" y="-90" width="100" height="40" as="geometry" />
        </mxCell>
        <mxCell id="zVeaoRBgDZd97qpMVTXL-64" style="edgeStyle=orthogonalEdgeStyle;rounded=0;orthogonalLoop=1;jettySize=auto;html=1;exitX=0.5;exitY=1;exitDx=0;exitDy=0;entryX=0.5;entryY=0;entryDx=0;entryDy=0;curved=1;endArrow=none;startFill=0;" edge="1" parent="1" source="zVeaoRBgDZd97qpMVTXL-62" target="PCS_lLPH-Cxck8cKdYNM-3">
          <mxGeometry relative="1" as="geometry" />
        </mxCell>
        <mxCell id="zVeaoRBgDZd97qpMVTXL-62" value="ServiceType" style="ellipse;whiteSpace=wrap;html=1;align=center;" vertex="1" parent="1">
          <mxGeometry x="890" y="-70" width="100" height="40" as="geometry" />
        </mxCell>
        <mxCell id="zVeaoRBgDZd97qpMVTXL-68" style="edgeStyle=orthogonalEdgeStyle;rounded=0;orthogonalLoop=1;jettySize=auto;html=1;exitX=0;exitY=0.5;exitDx=0;exitDy=0;entryX=1;entryY=0.5;entryDx=0;entryDy=0;curved=1;endArrow=none;startFill=0;" edge="1" parent="1" source="zVeaoRBgDZd97qpMVTXL-65" target="PCS_lLPH-Cxck8cKdYNM-3">
          <mxGeometry relative="1" as="geometry">
            <Array as="points">
              <mxPoint x="960" y="20" />
              <mxPoint x="925" y="20" />
              <mxPoint x="925" y="60" />
            </Array>
          </mxGeometry>
        </mxCell>
        <mxCell id="zVeaoRBgDZd97qpMVTXL-65" value="Description" style="ellipse;whiteSpace=wrap;html=1;align=center;" vertex="1" parent="1">
          <mxGeometry x="960" y="-20" width="100" height="40" as="geometry" />
        </mxCell>
        <mxCell id="zVeaoRBgDZd97qpMVTXL-69" style="edgeStyle=orthogonalEdgeStyle;rounded=0;orthogonalLoop=1;jettySize=auto;html=1;exitX=0;exitY=0.5;exitDx=0;exitDy=0;entryX=1;entryY=0.5;entryDx=0;entryDy=0;curved=1;endArrow=none;startFill=0;" edge="1" parent="1" source="zVeaoRBgDZd97qpMVTXL-66" target="PCS_lLPH-Cxck8cKdYNM-3">
          <mxGeometry relative="1" as="geometry">
            <mxPoint x="920" y="100" as="targetPoint" />
          </mxGeometry>
        </mxCell>
        <mxCell id="zVeaoRBgDZd97qpMVTXL-66" value="RequestFees" style="ellipse;whiteSpace=wrap;html=1;align=center;" vertex="1" parent="1">
          <mxGeometry x="980" y="30" width="100" height="40" as="geometry" />
        </mxCell>
        <mxCell id="zVeaoRBgDZd97qpMVTXL-70" style="edgeStyle=orthogonalEdgeStyle;rounded=0;orthogonalLoop=1;jettySize=auto;html=1;exitX=0;exitY=0.5;exitDx=0;exitDy=0;entryX=1;entryY=0.5;entryDx=0;entryDy=0;curved=1;endArrow=none;startFill=0;" edge="1" parent="1" source="zVeaoRBgDZd97qpMVTXL-67" target="PCS_lLPH-Cxck8cKdYNM-3">
          <mxGeometry relative="1" as="geometry" />
        </mxCell>
        <mxCell id="zVeaoRBgDZd97qpMVTXL-67" value="ServiceFees" style="ellipse;whiteSpace=wrap;html=1;align=center;" vertex="1" parent="1">
          <mxGeometry x="990" y="80" width="100" height="40" as="geometry" />
        </mxCell>
        <mxCell id="zVeaoRBgDZd97qpMVTXL-74" style="edgeStyle=orthogonalEdgeStyle;rounded=0;orthogonalLoop=1;jettySize=auto;html=1;exitX=1;exitY=0.5;exitDx=0;exitDy=0;entryX=0.5;entryY=0;entryDx=0;entryDy=0;" edge="1" parent="1" source="zVeaoRBgDZd97qpMVTXL-71" target="WppSuP8uSQgcxT5ixbPf-3">
          <mxGeometry relative="1" as="geometry">
            <Array as="points">
              <mxPoint x="410" y="-10" />
              <mxPoint x="410" y="20" />
              <mxPoint x="458" y="20" />
            </Array>
          </mxGeometry>
        </mxCell>
        <mxCell id="zVeaoRBgDZd97qpMVTXL-71" value="RequestID" style="ellipse;whiteSpace=wrap;html=1;align=center;fontStyle=4;" vertex="1" parent="1">
          <mxGeometry x="290" y="-30" width="100" height="40" as="geometry" />
        </mxCell>
        <mxCell id="zVeaoRBgDZd97qpMVTXL-76" style="edgeStyle=orthogonalEdgeStyle;rounded=0;orthogonalLoop=1;jettySize=auto;html=1;exitX=0.5;exitY=1;exitDx=0;exitDy=0;entryX=0.5;entryY=0;entryDx=0;entryDy=0;" edge="1" parent="1" source="zVeaoRBgDZd97qpMVTXL-72" target="WppSuP8uSQgcxT5ixbPf-3">
          <mxGeometry relative="1" as="geometry" />
        </mxCell>
        <mxCell id="zVeaoRBgDZd97qpMVTXL-72" value="statues" style="ellipse;whiteSpace=wrap;html=1;align=center;" vertex="1" parent="1">
          <mxGeometry x="480" y="-70" width="100" height="40" as="geometry" />
        </mxCell>
        <mxCell id="zVeaoRBgDZd97qpMVTXL-75" style="edgeStyle=orthogonalEdgeStyle;rounded=0;orthogonalLoop=1;jettySize=auto;html=1;exitX=1;exitY=1;exitDx=0;exitDy=0;entryX=0.5;entryY=0;entryDx=0;entryDy=0;" edge="1" parent="1" source="zVeaoRBgDZd97qpMVTXL-73" target="WppSuP8uSQgcxT5ixbPf-3">
          <mxGeometry relative="1" as="geometry" />
        </mxCell>
        <mxCell id="zVeaoRBgDZd97qpMVTXL-73" value="Date" style="ellipse;whiteSpace=wrap;html=1;align=center;" vertex="1" parent="1">
          <mxGeometry x="375" y="-60" width="100" height="40" as="geometry" />
        </mxCell>
        <mxCell id="zVeaoRBgDZd97qpMVTXL-78" style="edgeStyle=orthogonalEdgeStyle;rounded=0;orthogonalLoop=1;jettySize=auto;html=1;exitX=0.5;exitY=1;exitDx=0;exitDy=0;entryX=0.5;entryY=0;entryDx=0;entryDy=0;" edge="1" parent="1" source="zVeaoRBgDZd97qpMVTXL-77" target="WppSuP8uSQgcxT5ixbPf-3">
          <mxGeometry relative="1" as="geometry" />
        </mxCell>
        <mxCell id="zVeaoRBgDZd97qpMVTXL-77" value="PaidFees" style="ellipse;whiteSpace=wrap;html=1;align=center;" vertex="1" parent="1">
          <mxGeometry x="590" y="-80" width="100" height="40" as="geometry" />
        </mxCell>
        <mxCell id="zVeaoRBgDZd97qpMVTXL-84" style="edgeStyle=orthogonalEdgeStyle;rounded=0;orthogonalLoop=1;jettySize=auto;html=1;exitX=0.5;exitY=0;exitDx=0;exitDy=0;entryX=1;entryY=0.75;entryDx=0;entryDy=0;endArrow=ERzeroToOne;endFill=0;" edge="1" parent="1" source="zVeaoRBgDZd97qpMVTXL-80" target="WppSuP8uSQgcxT5ixbPf-3">
          <mxGeometry relative="1" as="geometry">
            <Array as="points">
              <mxPoint x="560" y="140" />
              <mxPoint x="560" y="70" />
            </Array>
          </mxGeometry>
        </mxCell>
        <mxCell id="zVeaoRBgDZd97qpMVTXL-85" style="edgeStyle=orthogonalEdgeStyle;rounded=0;orthogonalLoop=1;jettySize=auto;html=1;exitX=0;exitY=0.5;exitDx=0;exitDy=0;entryX=0.75;entryY=1;entryDx=0;entryDy=0;endArrow=ERzeroToOne;endFill=0;" edge="1" parent="1" source="zVeaoRBgDZd97qpMVTXL-80" target="WppSuP8uSQgcxT5ixbPf-3">
          <mxGeometry relative="1" as="geometry" />
        </mxCell>
        <mxCell id="zVeaoRBgDZd97qpMVTXL-80" value="Belong" style="shape=rhombus;perimeter=rhombusPerimeter;whiteSpace=wrap;html=1;align=center;" vertex="1" parent="1">
          <mxGeometry x="540" y="140" width="120" height="60" as="geometry" />
        </mxCell>
        <mxCell id="zVeaoRBgDZd97qpMVTXL-92" style="edgeStyle=orthogonalEdgeStyle;rounded=0;orthogonalLoop=1;jettySize=auto;html=1;exitX=0.5;exitY=1;exitDx=0;exitDy=0;entryX=0.5;entryY=0;entryDx=0;entryDy=0;endArrow=none;startFill=0;curved=1;" edge="1" parent="1" source="zVeaoRBgDZd97qpMVTXL-86" target="WppSuP8uSQgcxT5ixbPf-5">
          <mxGeometry relative="1" as="geometry" />
        </mxCell>
        <mxCell id="zVeaoRBgDZd97qpMVTXL-86" value="TestID" style="ellipse;whiteSpace=wrap;html=1;align=center;fontStyle=4;" vertex="1" parent="1">
          <mxGeometry x="650" y="-310" width="100" height="40" as="geometry" />
        </mxCell>
        <mxCell id="zVeaoRBgDZd97qpMVTXL-93" style="edgeStyle=orthogonalEdgeStyle;rounded=0;orthogonalLoop=1;jettySize=auto;html=1;exitX=0.5;exitY=1;exitDx=0;exitDy=0;entryX=0.5;entryY=0;entryDx=0;entryDy=0;endArrow=none;startFill=0;curved=1;" edge="1" parent="1" source="zVeaoRBgDZd97qpMVTXL-88" target="WppSuP8uSQgcxT5ixbPf-5">
          <mxGeometry relative="1" as="geometry" />
        </mxCell>
        <mxCell id="zVeaoRBgDZd97qpMVTXL-88" value="TestType" style="ellipse;whiteSpace=wrap;html=1;align=center;" vertex="1" parent="1">
          <mxGeometry x="760" y="-300" width="100" height="40" as="geometry" />
        </mxCell>
        <mxCell id="zVeaoRBgDZd97qpMVTXL-94" style="edgeStyle=orthogonalEdgeStyle;rounded=0;orthogonalLoop=1;jettySize=auto;html=1;exitX=0;exitY=0.5;exitDx=0;exitDy=0;entryX=0.5;entryY=0;entryDx=0;entryDy=0;endArrow=none;startFill=0;curved=1;" edge="1" parent="1" source="zVeaoRBgDZd97qpMVTXL-89" target="WppSuP8uSQgcxT5ixbPf-5">
          <mxGeometry relative="1" as="geometry" />
        </mxCell>
        <mxCell id="zVeaoRBgDZd97qpMVTXL-89" value="Testfees" style="ellipse;whiteSpace=wrap;html=1;align=center;" vertex="1" parent="1">
          <mxGeometry x="840" y="-260" width="100" height="40" as="geometry" />
        </mxCell>
        <mxCell id="zVeaoRBgDZd97qpMVTXL-95" style="edgeStyle=orthogonalEdgeStyle;rounded=0;orthogonalLoop=1;jettySize=auto;html=1;exitX=0;exitY=0.5;exitDx=0;exitDy=0;entryX=1;entryY=0.5;entryDx=0;entryDy=0;endArrow=none;startFill=0;curved=1;" edge="1" parent="1" source="zVeaoRBgDZd97qpMVTXL-90" target="WppSuP8uSQgcxT5ixbPf-5">
          <mxGeometry relative="1" as="geometry" />
        </mxCell>
        <mxCell id="zVeaoRBgDZd97qpMVTXL-90" value="MaxResult" style="ellipse;whiteSpace=wrap;html=1;align=center;" vertex="1" parent="1">
          <mxGeometry x="890" y="-220" width="100" height="40" as="geometry" />
        </mxCell>
        <mxCell id="zVeaoRBgDZd97qpMVTXL-96" style="edgeStyle=orthogonalEdgeStyle;rounded=0;orthogonalLoop=1;jettySize=auto;html=1;exitX=0;exitY=0.5;exitDx=0;exitDy=0;entryX=1;entryY=0.5;entryDx=0;entryDy=0;endArrow=none;startFill=0;curved=1;" edge="1" parent="1" source="zVeaoRBgDZd97qpMVTXL-91" target="WppSuP8uSQgcxT5ixbPf-5">
          <mxGeometry relative="1" as="geometry" />
        </mxCell>
        <mxCell id="zVeaoRBgDZd97qpMVTXL-91" value="Description" style="ellipse;whiteSpace=wrap;html=1;align=center;" vertex="1" parent="1">
          <mxGeometry x="860" y="-170" width="100" height="40" as="geometry" />
        </mxCell>
        <mxCell id="zVeaoRBgDZd97qpMVTXL-102" style="edgeStyle=orthogonalEdgeStyle;rounded=0;orthogonalLoop=1;jettySize=auto;html=1;exitX=0.5;exitY=1;exitDx=0;exitDy=0;entryX=0.5;entryY=0;entryDx=0;entryDy=0;endArrow=none;startFill=0;startArrow=none;curved=1;" edge="1" parent="1" source="zVeaoRBgDZd97qpMVTXL-97" target="zVeaoRBgDZd97qpMVTXL-1">
          <mxGeometry relative="1" as="geometry" />
        </mxCell>
        <mxCell id="zVeaoRBgDZd97qpMVTXL-97" value="EnrollmentID" style="ellipse;whiteSpace=wrap;html=1;align=center;fontStyle=4;" vertex="1" parent="1">
          <mxGeometry x="239" y="-300" width="100" height="40" as="geometry" />
        </mxCell>
        <mxCell id="zVeaoRBgDZd97qpMVTXL-103" style="edgeStyle=orthogonalEdgeStyle;rounded=0;orthogonalLoop=1;jettySize=auto;html=1;exitX=0.5;exitY=1;exitDx=0;exitDy=0;entryX=0.5;entryY=0;entryDx=0;entryDy=0;endArrow=none;startFill=0;startArrow=none;curved=1;" edge="1" parent="1" source="zVeaoRBgDZd97qpMVTXL-98" target="zVeaoRBgDZd97qpMVTXL-1">
          <mxGeometry relative="1" as="geometry" />
        </mxCell>
        <mxCell id="zVeaoRBgDZd97qpMVTXL-98" value="DateTime" style="ellipse;whiteSpace=wrap;html=1;align=center;" vertex="1" parent="1">
          <mxGeometry x="325" y="-330" width="100" height="40" as="geometry" />
        </mxCell>
        <mxCell id="zVeaoRBgDZd97qpMVTXL-104" style="edgeStyle=orthogonalEdgeStyle;rounded=0;orthogonalLoop=1;jettySize=auto;html=1;exitX=0.5;exitY=1;exitDx=0;exitDy=0;entryX=0.5;entryY=0;entryDx=0;entryDy=0;endArrow=none;startFill=0;startArrow=none;curved=1;" edge="1" parent="1" source="zVeaoRBgDZd97qpMVTXL-99" target="zVeaoRBgDZd97qpMVTXL-1">
          <mxGeometry relative="1" as="geometry" />
        </mxCell>
        <mxCell id="zVeaoRBgDZd97qpMVTXL-99" value="PaidFees" style="ellipse;whiteSpace=wrap;html=1;align=center;" vertex="1" parent="1">
          <mxGeometry x="408" y="-360" width="100" height="40" as="geometry" />
        </mxCell>
        <mxCell id="zVeaoRBgDZd97qpMVTXL-105" style="edgeStyle=orthogonalEdgeStyle;rounded=0;orthogonalLoop=1;jettySize=auto;html=1;exitX=0;exitY=0.5;exitDx=0;exitDy=0;entryX=0.5;entryY=0;entryDx=0;entryDy=0;endArrow=none;startFill=0;startArrow=none;curved=1;" edge="1" parent="1" source="zVeaoRBgDZd97qpMVTXL-100" target="zVeaoRBgDZd97qpMVTXL-1">
          <mxGeometry relative="1" as="geometry">
            <Array as="points">
              <mxPoint x="510" y="-330" />
              <mxPoint x="510" y="-290" />
              <mxPoint x="428" y="-290" />
            </Array>
          </mxGeometry>
        </mxCell>
        <mxCell id="zVeaoRBgDZd97qpMVTXL-100" value="NumaricResult" style="ellipse;whiteSpace=wrap;html=1;align=center;" vertex="1" parent="1">
          <mxGeometry x="518" y="-350" width="100" height="40" as="geometry" />
        </mxCell>
        <mxCell id="zVeaoRBgDZd97qpMVTXL-106" style="edgeStyle=orthogonalEdgeStyle;rounded=0;orthogonalLoop=1;jettySize=auto;html=1;exitX=0;exitY=0.5;exitDx=0;exitDy=0;entryX=0.5;entryY=0;entryDx=0;entryDy=0;endArrow=none;startFill=0;startArrow=none;curved=1;" edge="1" parent="1" source="zVeaoRBgDZd97qpMVTXL-101" target="zVeaoRBgDZd97qpMVTXL-1">
          <mxGeometry relative="1" as="geometry" />
        </mxCell>
        <mxCell id="zVeaoRBgDZd97qpMVTXL-101" value="Result" style="ellipse;whiteSpace=wrap;html=1;align=center;" vertex="1" parent="1">
          <mxGeometry x="510" y="-300" width="100" height="40" as="geometry" />
        </mxCell>
        <mxCell id="zVeaoRBgDZd97qpMVTXL-119" style="edgeStyle=orthogonalEdgeStyle;rounded=0;orthogonalLoop=1;jettySize=auto;html=1;exitX=0.5;exitY=0;exitDx=0;exitDy=0;endArrow=none;startFill=0;curved=1;" edge="1" parent="1" source="zVeaoRBgDZd97qpMVTXL-107" target="WppSuP8uSQgcxT5ixbPf-7">
          <mxGeometry relative="1" as="geometry">
            <Array as="points">
              <mxPoint x="-90" y="500" />
              <mxPoint x="70" y="500" />
            </Array>
          </mxGeometry>
        </mxCell>
        <mxCell id="zVeaoRBgDZd97qpMVTXL-107" value="LicenseID" style="ellipse;whiteSpace=wrap;html=1;align=center;fontStyle=4;" vertex="1" parent="1">
          <mxGeometry x="-140" y="510" width="100" height="40" as="geometry" />
        </mxCell>
        <mxCell id="zVeaoRBgDZd97qpMVTXL-118" style="edgeStyle=orthogonalEdgeStyle;rounded=0;orthogonalLoop=1;jettySize=auto;html=1;exitX=0.5;exitY=0;exitDx=0;exitDy=0;entryX=0.5;entryY=1;entryDx=0;entryDy=0;endArrow=none;startFill=0;curved=1;" edge="1" parent="1" source="zVeaoRBgDZd97qpMVTXL-109" target="WppSuP8uSQgcxT5ixbPf-7">
          <mxGeometry relative="1" as="geometry" />
        </mxCell>
        <mxCell id="zVeaoRBgDZd97qpMVTXL-109" value="ReleaseDate" style="ellipse;whiteSpace=wrap;html=1;align=center;" vertex="1" parent="1">
          <mxGeometry x="-80" y="550" width="100" height="40" as="geometry" />
        </mxCell>
        <mxCell id="zVeaoRBgDZd97qpMVTXL-115" style="edgeStyle=orthogonalEdgeStyle;rounded=0;orthogonalLoop=1;jettySize=auto;html=1;exitX=0.5;exitY=0;exitDx=0;exitDy=0;entryX=0.5;entryY=1;entryDx=0;entryDy=0;endArrow=none;startFill=0;curved=1;" edge="1" parent="1" source="zVeaoRBgDZd97qpMVTXL-110" target="WppSuP8uSQgcxT5ixbPf-7">
          <mxGeometry relative="1" as="geometry" />
        </mxCell>
        <mxCell id="zVeaoRBgDZd97qpMVTXL-110" value="LicenseTerms" style="ellipse;whiteSpace=wrap;html=1;align=center;" vertex="1" parent="1">
          <mxGeometry x="129" y="530" width="100" height="40" as="geometry" />
        </mxCell>
        <mxCell id="zVeaoRBgDZd97qpMVTXL-116" style="edgeStyle=orthogonalEdgeStyle;rounded=0;orthogonalLoop=1;jettySize=auto;html=1;exitX=0.5;exitY=0;exitDx=0;exitDy=0;entryX=0.5;entryY=1;entryDx=0;entryDy=0;endArrow=none;startFill=0;curved=1;" edge="1" parent="1" source="zVeaoRBgDZd97qpMVTXL-111" target="WppSuP8uSQgcxT5ixbPf-7">
          <mxGeometry relative="1" as="geometry">
            <Array as="points">
              <mxPoint x="110" y="570" />
              <mxPoint x="110" y="525" />
              <mxPoint x="70" y="525" />
            </Array>
          </mxGeometry>
        </mxCell>
        <mxCell id="zVeaoRBgDZd97qpMVTXL-111" value="LicenseStatus" style="ellipse;whiteSpace=wrap;html=1;align=center;" vertex="1" parent="1">
          <mxGeometry x="80" y="570" width="100" height="40" as="geometry" />
        </mxCell>
        <mxCell id="zVeaoRBgDZd97qpMVTXL-117" style="edgeStyle=orthogonalEdgeStyle;rounded=0;orthogonalLoop=1;jettySize=auto;html=1;exitX=0.5;exitY=0;exitDx=0;exitDy=0;entryX=0.5;entryY=1;entryDx=0;entryDy=0;endArrow=none;startFill=0;curved=1;" edge="1" parent="1" source="zVeaoRBgDZd97qpMVTXL-112" target="WppSuP8uSQgcxT5ixbPf-7">
          <mxGeometry relative="1" as="geometry">
            <Array as="points">
              <mxPoint x="40" y="590" />
              <mxPoint x="40" y="535" />
              <mxPoint x="70" y="535" />
            </Array>
          </mxGeometry>
        </mxCell>
        <mxCell id="zVeaoRBgDZd97qpMVTXL-112" value="EndDate" style="ellipse;whiteSpace=wrap;html=1;align=center;" vertex="1" parent="1">
          <mxGeometry x="-20" y="590" width="100" height="40" as="geometry" />
        </mxCell>
        <mxCell id="zVeaoRBgDZd97qpMVTXL-121" value="" style="edgeStyle=orthogonalEdgeStyle;rounded=0;orthogonalLoop=1;jettySize=auto;html=1;curved=1;endArrow=none;startFill=0;" edge="1" parent="1" source="zVeaoRBgDZd97qpMVTXL-120" target="WppSuP8uSQgcxT5ixbPf-15">
          <mxGeometry relative="1" as="geometry" />
        </mxCell>
        <mxCell id="zVeaoRBgDZd97qpMVTXL-120" value="DriverID" style="ellipse;whiteSpace=wrap;html=1;align=center;fontStyle=4;" vertex="1" parent="1">
          <mxGeometry x="-150" y="240" width="100" height="40" as="geometry" />
        </mxCell>
        <mxCell id="zVeaoRBgDZd97qpMVTXL-127" style="edgeStyle=orthogonalEdgeStyle;rounded=0;orthogonalLoop=1;jettySize=auto;html=1;exitX=1;exitY=0.5;exitDx=0;exitDy=0;entryX=0;entryY=0.25;entryDx=0;entryDy=0;endArrow=none;startFill=0;curved=1;" edge="1" parent="1" source="zVeaoRBgDZd97qpMVTXL-122" target="WppSuP8uSQgcxT5ixbPf-10">
          <mxGeometry relative="1" as="geometry" />
        </mxCell>
        <mxCell id="zVeaoRBgDZd97qpMVTXL-122" value="ReservationID" style="ellipse;whiteSpace=wrap;html=1;align=center;fontStyle=4;" vertex="1" parent="1">
          <mxGeometry x="-440" y="390" width="100" height="40" as="geometry" />
        </mxCell>
        <mxCell id="zVeaoRBgDZd97qpMVTXL-128" style="edgeStyle=orthogonalEdgeStyle;rounded=0;orthogonalLoop=1;jettySize=auto;html=1;exitX=1;exitY=0.5;exitDx=0;exitDy=0;entryX=0;entryY=0.25;entryDx=0;entryDy=0;endArrow=none;startFill=0;curved=1;" edge="1" parent="1" source="zVeaoRBgDZd97qpMVTXL-123" target="WppSuP8uSQgcxT5ixbPf-10">
          <mxGeometry relative="1" as="geometry" />
        </mxCell>
        <mxCell id="zVeaoRBgDZd97qpMVTXL-123" value="Reason" style="ellipse;whiteSpace=wrap;html=1;align=center;" vertex="1" parent="1">
          <mxGeometry x="-460" y="440" width="100" height="40" as="geometry" />
        </mxCell>
        <mxCell id="zVeaoRBgDZd97qpMVTXL-129" style="edgeStyle=orthogonalEdgeStyle;rounded=0;orthogonalLoop=1;jettySize=auto;html=1;exitX=1;exitY=0.5;exitDx=0;exitDy=0;entryX=0.5;entryY=1;entryDx=0;entryDy=0;endArrow=none;startFill=0;curved=1;" edge="1" parent="1" source="zVeaoRBgDZd97qpMVTXL-124" target="WppSuP8uSQgcxT5ixbPf-10">
          <mxGeometry relative="1" as="geometry" />
        </mxCell>
        <mxCell id="zVeaoRBgDZd97qpMVTXL-124" value="startDate" style="ellipse;whiteSpace=wrap;html=1;align=center;" vertex="1" parent="1">
          <mxGeometry x="-460" y="500" width="100" height="40" as="geometry" />
        </mxCell>
        <mxCell id="zVeaoRBgDZd97qpMVTXL-130" style="edgeStyle=orthogonalEdgeStyle;rounded=0;orthogonalLoop=1;jettySize=auto;html=1;exitX=1;exitY=0;exitDx=0;exitDy=0;entryX=0.5;entryY=1;entryDx=0;entryDy=0;endArrow=none;startFill=0;curved=1;" edge="1" parent="1" source="zVeaoRBgDZd97qpMVTXL-125" target="WppSuP8uSQgcxT5ixbPf-10">
          <mxGeometry relative="1" as="geometry" />
        </mxCell>
        <mxCell id="zVeaoRBgDZd97qpMVTXL-125" value="EndDate" style="ellipse;whiteSpace=wrap;html=1;align=center;" vertex="1" parent="1">
          <mxGeometry x="-440" y="550" width="100" height="40" as="geometry" />
        </mxCell>
        <mxCell id="zVeaoRBgDZd97qpMVTXL-131" style="edgeStyle=orthogonalEdgeStyle;rounded=0;orthogonalLoop=1;jettySize=auto;html=1;exitX=1;exitY=0.5;exitDx=0;exitDy=0;entryX=0.5;entryY=1;entryDx=0;entryDy=0;endArrow=none;startFill=0;curved=1;" edge="1" parent="1" source="zVeaoRBgDZd97qpMVTXL-126" target="WppSuP8uSQgcxT5ixbPf-10">
          <mxGeometry relative="1" as="geometry" />
        </mxCell>
        <mxCell id="zVeaoRBgDZd97qpMVTXL-126" value="Fin" style="ellipse;whiteSpace=wrap;html=1;align=center;" vertex="1" parent="1">
          <mxGeometry x="-380" y="590" width="100" height="40" as="geometry" />
        </mxCell>
        <mxCell id="zVeaoRBgDZd97qpMVTXL-134" style="edgeStyle=orthogonalEdgeStyle;rounded=0;orthogonalLoop=1;jettySize=auto;html=1;exitX=0.5;exitY=0;exitDx=0;exitDy=0;entryX=0.5;entryY=1;entryDx=0;entryDy=0;endArrow=none;startFill=0;curved=1;" edge="1" parent="1" source="zVeaoRBgDZd97qpMVTXL-133" target="WppSuP8uSQgcxT5ixbPf-10">
          <mxGeometry relative="1" as="geometry" />
        </mxCell>
        <mxCell id="zVeaoRBgDZd97qpMVTXL-133" value="PaidFin" style="ellipse;whiteSpace=wrap;html=1;align=center;" vertex="1" parent="1">
          <mxGeometry x="-290" y="620" width="100" height="40" as="geometry" />
        </mxCell>
      </root>
    </mxGraphModel>
  </diagram>
</mxfile>
